<mxfile host="app.diagrams.net" modified="2021-02-08T09:43:53.181Z" agent="5.0 (Windows NT 10.0; Win64; x64) AppleWebKit/537.36 (KHTML, like Gecko) Chrome/88.0.4324.146 Safari/537.36" etag="56MkW0Up16UGVjI2-8ZM" version="14.2.9" type="github">
  <diagram id="v-Hmaf0apreIB0kLxW2e" name="Page-1">
    <mxGraphModel dx="1102" dy="648" grid="1" gridSize="10" guides="1" tooltips="1" connect="1" arrows="1" fold="1" page="1" pageScale="1" pageWidth="827" pageHeight="1169" background="#F1FAEE" math="0" shadow="0">
      <root>
        <mxCell id="0" />
        <mxCell id="1" parent="0" />
        <mxCell id="K9jqtFpiyI7BbKn_VTZu-1" value="" style="endArrow=classic;html=1;labelBackgroundColor=#F1FAEE;strokeColor=#457B9D;fontColor=#1D3557;strokeWidth=2;" parent="1" edge="1">
          <mxGeometry width="50" height="50" relative="1" as="geometry">
            <mxPoint x="120" y="400" as="sourcePoint" />
            <mxPoint x="610" y="400" as="targetPoint" />
          </mxGeometry>
        </mxCell>
        <mxCell id="K9jqtFpiyI7BbKn_VTZu-2" value="" style="endArrow=classic;html=1;labelBackgroundColor=#F1FAEE;strokeColor=#457B9D;fontColor=#1D3557;strokeWidth=2;" parent="1" edge="1">
          <mxGeometry width="50" height="50" relative="1" as="geometry">
            <mxPoint x="360" y="630" as="sourcePoint" />
            <mxPoint x="360" y="160" as="targetPoint" />
          </mxGeometry>
        </mxCell>
        <mxCell id="QiDDoPEwWHBKxO8Q8keR-3" value="" style="endArrow=none;dashed=1;html=1;strokeColor=#6F0000;strokeWidth=2;fillColor=#a20025;fontColor=#FF6666;" edge="1" parent="1">
          <mxGeometry width="50" height="50" relative="1" as="geometry">
            <mxPoint x="480" y="396" as="sourcePoint" />
            <mxPoint x="480" y="280" as="targetPoint" />
          </mxGeometry>
        </mxCell>
        <mxCell id="QiDDoPEwWHBKxO8Q8keR-4" value="" style="endArrow=none;dashed=1;html=1;strokeColor=#6F0000;strokeWidth=2;fillColor=#a20025;fontColor=#FF6666;" edge="1" parent="1">
          <mxGeometry width="50" height="50" relative="1" as="geometry">
            <mxPoint x="480" y="280" as="sourcePoint" />
            <mxPoint x="360" y="280" as="targetPoint" />
          </mxGeometry>
        </mxCell>
        <mxCell id="QiDDoPEwWHBKxO8Q8keR-1" value="" style="ellipse;whiteSpace=wrap;html=1;aspect=fixed;rounded=0;sketch=0;strokeColor=#6F0000;fillColor=#a20025;fontColor=#ffffff;" vertex="1" parent="1">
          <mxGeometry x="475" y="274" width="10" height="10" as="geometry" />
        </mxCell>
        <mxCell id="QiDDoPEwWHBKxO8Q8keR-5" value="" style="endArrow=none;dashed=1;html=1;strokeColor=#005700;strokeWidth=2;fillColor=#008a00;fontColor=#FF6666;" edge="1" parent="1">
          <mxGeometry width="50" height="50" relative="1" as="geometry">
            <mxPoint x="360" y="520" as="sourcePoint" />
            <mxPoint x="275" y="519.5" as="targetPoint" />
          </mxGeometry>
        </mxCell>
        <mxCell id="QiDDoPEwWHBKxO8Q8keR-6" value="" style="endArrow=none;dashed=1;html=1;strokeColor=#005700;strokeWidth=2;fillColor=#008a00;fontColor=#FF6666;" edge="1" parent="1">
          <mxGeometry width="50" height="50" relative="1" as="geometry">
            <mxPoint x="279.5" y="515" as="sourcePoint" />
            <mxPoint x="279.5" y="399" as="targetPoint" />
          </mxGeometry>
        </mxCell>
        <mxCell id="QiDDoPEwWHBKxO8Q8keR-2" value="" style="ellipse;whiteSpace=wrap;html=1;aspect=fixed;rounded=0;sketch=0;strokeColor=#005700;fillColor=#008a00;fontColor=#ffffff;" vertex="1" parent="1">
          <mxGeometry x="275" y="515" width="10" height="10" as="geometry" />
        </mxCell>
        <mxCell id="QiDDoPEwWHBKxO8Q8keR-8" value="X" style="text;html=1;strokeColor=none;fillColor=none;align=center;verticalAlign=middle;whiteSpace=wrap;rounded=0;sketch=0;fontColor=#FF6666;" vertex="1" parent="1">
          <mxGeometry x="570" y="400" width="40" height="20" as="geometry" />
        </mxCell>
        <mxCell id="QiDDoPEwWHBKxO8Q8keR-9" value="Y" style="text;html=1;strokeColor=none;fillColor=none;align=center;verticalAlign=middle;whiteSpace=wrap;rounded=0;sketch=0;fontColor=#FF6666;" vertex="1" parent="1">
          <mxGeometry x="360" y="160" width="40" height="20" as="geometry" />
        </mxCell>
        <mxCell id="QiDDoPEwWHBKxO8Q8keR-10" value="1" style="text;html=1;strokeColor=none;fillColor=none;align=center;verticalAlign=middle;whiteSpace=wrap;rounded=0;sketch=0;fontColor=#FF6666;fontStyle=1" vertex="1" parent="1">
          <mxGeometry x="380" y="400" width="40" height="20" as="geometry" />
        </mxCell>
        <mxCell id="QiDDoPEwWHBKxO8Q8keR-11" value="2" style="text;html=1;strokeColor=none;fillColor=none;align=center;verticalAlign=middle;whiteSpace=wrap;rounded=0;sketch=0;fontColor=#FF6666;fontStyle=1" vertex="1" parent="1">
          <mxGeometry x="420" y="400" width="40" height="20" as="geometry" />
        </mxCell>
        <mxCell id="QiDDoPEwWHBKxO8Q8keR-12" value="3" style="text;html=1;strokeColor=none;fillColor=none;align=center;verticalAlign=middle;whiteSpace=wrap;rounded=0;sketch=0;fontColor=#FF6666;fontStyle=1" vertex="1" parent="1">
          <mxGeometry x="460" y="400" width="40" height="20" as="geometry" />
        </mxCell>
        <mxCell id="QiDDoPEwWHBKxO8Q8keR-14" value="1" style="text;html=1;strokeColor=none;fillColor=none;align=center;verticalAlign=middle;whiteSpace=wrap;rounded=0;sketch=0;fontColor=#FF6666;fontStyle=1" vertex="1" parent="1">
          <mxGeometry x="340" y="350" width="20" height="20" as="geometry" />
        </mxCell>
        <mxCell id="QiDDoPEwWHBKxO8Q8keR-15" value="2" style="text;html=1;strokeColor=none;fillColor=none;align=center;verticalAlign=middle;whiteSpace=wrap;rounded=0;sketch=0;fontColor=#FF6666;fontStyle=1" vertex="1" parent="1">
          <mxGeometry x="340" y="310" width="20" height="20" as="geometry" />
        </mxCell>
        <mxCell id="QiDDoPEwWHBKxO8Q8keR-16" value="3" style="text;html=1;strokeColor=none;fillColor=none;align=center;verticalAlign=middle;whiteSpace=wrap;rounded=0;sketch=0;fontColor=#FF6666;fontStyle=1" vertex="1" parent="1">
          <mxGeometry x="340" y="269" width="20" height="20" as="geometry" />
        </mxCell>
        <mxCell id="QiDDoPEwWHBKxO8Q8keR-18" value="(3, 3)" style="text;html=1;strokeColor=none;fillColor=none;align=center;verticalAlign=middle;whiteSpace=wrap;rounded=0;sketch=0;fontColor=#FF6666;fontSize=15;fontStyle=1" vertex="1" parent="1">
          <mxGeometry x="490" y="254" width="40" height="20" as="geometry" />
        </mxCell>
        <mxCell id="QiDDoPEwWHBKxO8Q8keR-19" value="-1" style="text;html=1;strokeColor=none;fillColor=none;align=center;verticalAlign=middle;whiteSpace=wrap;rounded=0;sketch=0;fontColor=#FF6666;fontStyle=1" vertex="1" parent="1">
          <mxGeometry x="360" y="430" width="20" height="20" as="geometry" />
        </mxCell>
        <mxCell id="QiDDoPEwWHBKxO8Q8keR-20" value="-2" style="text;html=1;strokeColor=none;fillColor=none;align=center;verticalAlign=middle;whiteSpace=wrap;rounded=0;sketch=0;fontColor=#FF6666;fontStyle=1" vertex="1" parent="1">
          <mxGeometry x="360" y="470" width="20" height="20" as="geometry" />
        </mxCell>
        <mxCell id="QiDDoPEwWHBKxO8Q8keR-21" value="-3" style="text;html=1;strokeColor=none;fillColor=none;align=center;verticalAlign=middle;whiteSpace=wrap;rounded=0;sketch=0;fontColor=#FF6666;fontStyle=1" vertex="1" parent="1">
          <mxGeometry x="360" y="510" width="20" height="20" as="geometry" />
        </mxCell>
        <mxCell id="QiDDoPEwWHBKxO8Q8keR-22" value="-1" style="text;html=1;strokeColor=none;fillColor=none;align=center;verticalAlign=middle;whiteSpace=wrap;rounded=0;sketch=0;fontColor=#FF6666;fontStyle=1" vertex="1" parent="1">
          <mxGeometry x="300" y="370" width="40" height="20" as="geometry" />
        </mxCell>
        <mxCell id="QiDDoPEwWHBKxO8Q8keR-23" value="-2" style="text;html=1;strokeColor=none;fillColor=none;align=center;verticalAlign=middle;whiteSpace=wrap;rounded=0;sketch=0;fontColor=#FF6666;fontStyle=1" vertex="1" parent="1">
          <mxGeometry x="260" y="370" width="40" height="20" as="geometry" />
        </mxCell>
        <mxCell id="QiDDoPEwWHBKxO8Q8keR-24" value="-3" style="text;html=1;strokeColor=none;fillColor=none;align=center;verticalAlign=middle;whiteSpace=wrap;rounded=0;sketch=0;fontColor=#FF6666;fontStyle=1" vertex="1" parent="1">
          <mxGeometry x="220" y="370" width="40" height="20" as="geometry" />
        </mxCell>
        <mxCell id="QiDDoPEwWHBKxO8Q8keR-25" value="(-2, -3)" style="text;html=1;strokeColor=none;fillColor=none;align=center;verticalAlign=middle;whiteSpace=wrap;rounded=0;sketch=0;fontColor=#FF6666;fontSize=15;fontStyle=1" vertex="1" parent="1">
          <mxGeometry x="230" y="530" width="55" height="20" as="geometry" />
        </mxCell>
        <mxCell id="QiDDoPEwWHBKxO8Q8keR-26" value="笛卡尔坐标系" style="text;html=1;strokeColor=none;fillColor=none;align=center;verticalAlign=middle;whiteSpace=wrap;rounded=0;sketch=0;fontSize=22;fontColor=#FF6666;fontStyle=1" vertex="1" parent="1">
          <mxGeometry x="197.5" y="60" width="322.5" height="50" as="geometry" />
        </mxCell>
      </root>
    </mxGraphModel>
  </diagram>
</mxfile>
